<svg viewBox="0 0 1200 320" xmlns="http://www.w3.org/2000/svg" role="img" aria-label="CanvasSuite banner">
  <defs>
    <linearGradient id="titleGradient" x1="0%" y1="0%" x2="100%" y2="0%">
      <stop offset="0%" stop-color="#38bdf8"/>
      <stop offset="100%" stop-color="#818cf8"/>
    </linearGradient>
  </defs>

  <!-- top grass/dirt pixel strip -->
  <rect x="0" y="0" width="40" height="12" fill="#7cb342"/><rect x="40" y="0" width="40" height="12" fill="#8bc34a"/><rect x="80" y="0" width="40" height="12" fill="#7cb342"/><rect x="120" y="0" width="40" height="12" fill="#8bc34a"/><rect x="160" y="0" width="40" height="12" fill="#7cb342"/><rect x="200" y="0" width="40" height="12" fill="#8bc34a"/><rect x="240" y="0" width="40" height="12" fill="#7cb342"/><rect x="280" y="0" width="40" height="12" fill="#8bc34a"/><rect x="320" y="0" width="40" height="12" fill="#7cb342"/><rect x="360" y="0" width="40" height="12" fill="#8bc34a"/><rect x="400" y="0" width="40" height="12" fill="#7cb342"/><rect x="440" y="0" width="40" height="12" fill="#8bc34a"/><rect x="480" y="0" width="40" height="12" fill="#7cb342"/><rect x="520" y="0" width="40" height="12" fill="#8bc34a"/><rect x="560" y="0" width="40" height="12" fill="#7cb342"/><rect x="600" y="0" width="40" height="12" fill="#8bc34a"/><rect x="640" y="0" width="40" height="12" fill="#7cb342"/><rect x="680" y="0" width="40" height="12" fill="#8bc34a"/><rect x="720" y="0" width="40" height="12" fill="#7cb342"/><rect x="760" y="0" width="40" height="12" fill="#8bc34a"/><rect x="800" y="0" width="40" height="12" fill="#7cb342"/><rect x="840" y="0" width="40" height="12" fill="#8bc34a"/><rect x="880" y="0" width="40" height="12" fill="#7cb342"/><rect x="920" y="0" width="40" height="12" fill="#8bc34a"/><rect x="960" y="0" width="40" height="12" fill="#7cb342"/><rect x="1000" y="0" width="40" height="12" fill="#8bc34a"/><rect x="1040" y="0" width="40" height="12" fill="#7cb342"/><rect x="1080" y="0" width="40" height="12" fill="#8bc34a"/><rect x="1120" y="0" width="40" height="12" fill="#7cb342"/><rect x="1160" y="0" width="40" height="12" fill="#8bc34a"/>
  <rect x="0" y="12" width="40" height="10" fill="#5d4037"/><rect x="40" y="12" width="40" height="10" fill="#6d4c41"/><rect x="80" y="12" width="40" height="10" fill="#5d4037"/><rect x="120" y="12" width="40" height="10" fill="#6d4c41"/><rect x="160" y="12" width="40" height="10" fill="#5d4037"/><rect x="200" y="12" width="40" height="10" fill="#6d4c41"/><rect x="240" y="12" width="40" height="10" fill="#5d4037"/><rect x="280" y="12" width="40" height="10" fill="#6d4c41"/><rect x="320" y="12" width="40" height="10" fill="#5d4037"/><rect x="360" y="12" width="40" height="10" fill="#6d4c41"/><rect x="400" y="12" width="40" height="10" fill="#5d4037"/><rect x="440" y="12" width="40" height="10" fill="#6d4c41"/><rect x="480" y="12" width="40" height="10" fill="#5d4037"/><rect x="520" y="12" width="40" height="10" fill="#6d4c41"/><rect x="560" y="12" width="40" height="10" fill="#5d4037"/><rect x="600" y="12" width="40" height="10" fill="#6d4c41"/><rect x="640" y="12" width="40" height="10" fill="#5d4037"/><rect x="680" y="12" width="40" height="10" fill="#6d4c41"/><rect x="720" y="12" width="40" height="10" fill="#5d4037"/><rect x="760" y="12" width="40" height="10" fill="#6d4c41"/><rect x="800" y="12" width="40" height="10" fill="#5d4037"/><rect x="840" y="12" width="40" height="10" fill="#6d4c41"/><rect x="880" y="12" width="40" height="10" fill="#5d4037"/><rect x="920" y="12" width="40" height="10" fill="#6d4c41"/><rect x="960" y="12" width="40" height="10" fill="#5d4037"/><rect x="1000" y="12" width="40" height="10" fill="#6d4c41"/><rect x="1040" y="12" width="40" height="10" fill="#5d4037"/><rect x="1080" y="12" width="40" height="10" fill="#6d4c41"/><rect x="1120" y="12" width="40" height="10" fill="#5d4037"/><rect x="1160" y="12" width="40" height="10" fill="#6d4c41"/>

  <!-- left grass block -->
  <g transform="translate(70,118)">
    <polygon points="0,22 55,0 110,22 55,44" fill="#8bc34a"/>
    <polygon points="0,22 55,44 55,104 0,82" fill="#5d4037"/>
    <polygon points="110,22 55,44 55,104 110,82" fill="#4e342e"/>
  </g>

  <!-- right grass block -->
  <g transform="translate(1020,118)">
    <polygon points="0,22 55,0 110,22 55,44" fill="#8bc34a"/>
    <polygon points="0,22 55,44 55,104 0,82" fill="#5d4037"/>
    <polygon points="110,22 55,44 55,104 110,82" fill="#4e342e"/>
  </g>

  <!-- title: dark offset copy first (classic Minecraft in-game text shadow), then gradient fill on top -->
  <text x="606" y="186" font-family="'Courier New', 'Lucida Console', monospace" font-size="92" font-weight="700" text-anchor="middle" fill="#1e2530" letter-spacing="2">CanvasSuite</text>
  <text x="600" y="180" font-family="'Courier New', 'Lucida Console', monospace" font-size="92" font-weight="700" text-anchor="middle" fill="url(#titleGradient)" letter-spacing="2">CanvasSuite</text>

  <!-- subtitle -->
  <text x="601" y="231" font-family="'Segoe UI', Verdana, sans-serif" font-size="24" text-anchor="middle" fill="#1e2530" opacity="0.6">All-in-one SMP plugin for CanvasMC &#8226; built for Folia</text>
  <text x="600" y="230" font-family="'Segoe UI', Verdana, sans-serif" font-size="24" text-anchor="middle" fill="#94a3b8">All-in-one SMP plugin for CanvasMC &#8226; built for Folia</text>

  <!-- bottom dirt/grass pixel strip -->
  <rect x="0" y="298" width="40" height="10" fill="#5d4037"/><rect x="40" y="298" width="40" height="10" fill="#6d4c41"/><rect x="80" y="298" width="40" height="10" fill="#5d4037"/><rect x="120" y="298" width="40" height="10" fill="#6d4c41"/><rect x="160" y="298" width="40" height="10" fill="#5d4037"/><rect x="200" y="298" width="40" height="10" fill="#6d4c41"/><rect x="240" y="298" width="40" height="10" fill="#5d4037"/><rect x="280" y="298" width="40" height="10" fill="#6d4c41"/><rect x="320" y="298" width="40" height="10" fill="#5d4037"/><rect x="360" y="298" width="40" height="10" fill="#6d4c41"/><rect x="400" y="298" width="40" height="10" fill="#5d4037"/><rect x="440" y="298" width="40" height="10" fill="#6d4c41"/><rect x="480" y="298" width="40" height="10" fill="#5d4037"/><rect x="520" y="298" width="40" height="10" fill="#6d4c41"/><rect x="560" y="298" width="40" height="10" fill="#5d4037"/><rect x="600" y="298" width="40" height="10" fill="#6d4c41"/><rect x="640" y="298" width="40" height="10" fill="#5d4037"/><rect x="680" y="298" width="40" height="10" fill="#6d4c41"/><rect x="720" y="298" width="40" height="10" fill="#5d4037"/><rect x="760" y="298" width="40" height="10" fill="#6d4c41"/><rect x="800" y="298" width="40" height="10" fill="#5d4037"/><rect x="840" y="298" width="40" height="10" fill="#6d4c41"/><rect x="880" y="298" width="40" height="10" fill="#5d4037"/><rect x="920" y="298" width="40" height="10" fill="#6d4c41"/><rect x="960" y="298" width="40" height="10" fill="#5d4037"/><rect x="1000" y="298" width="40" height="10" fill="#6d4c41"/><rect x="1040" y="298" width="40" height="10" fill="#5d4037"/><rect x="1080" y="298" width="40" height="10" fill="#6d4c41"/><rect x="1120" y="298" width="40" height="10" fill="#5d4037"/><rect x="1160" y="298" width="40" height="10" fill="#6d4c41"/>
  <rect x="0" y="308" width="40" height="12" fill="#7cb342"/><rect x="40" y="308" width="40" height="12" fill="#8bc34a"/><rect x="80" y="308" width="40" height="12" fill="#7cb342"/><rect x="120" y="308" width="40" height="12" fill="#8bc34a"/><rect x="160" y="308" width="40" height="12" fill="#7cb342"/><rect x="200" y="308" width="40" height="12" fill="#8bc34a"/><rect x="240" y="308" width="40" height="12" fill="#7cb342"/><rect x="280" y="308" width="40" height="12" fill="#8bc34a"/><rect x="320" y="308" width="40" height="12" fill="#7cb342"/><rect x="360" y="308" width="40" height="12" fill="#8bc34a"/><rect x="400" y="308" width="40" height="12" fill="#7cb342"/><rect x="440" y="308" width="40" height="12" fill="#8bc34a"/><rect x="480" y="308" width="40" height="12" fill="#7cb342"/><rect x="520" y="308" width="40" height="12" fill="#8bc34a"/><rect x="560" y="308" width="40" height="12" fill="#7cb342"/><rect x="600" y="308" width="40" height="12" fill="#8bc34a"/><rect x="640" y="308" width="40" height="12" fill="#7cb342"/><rect x="680" y="308" width="40" height="12" fill="#8bc34a"/><rect x="720" y="308" width="40" height="12" fill="#7cb342"/><rect x="760" y="308" width="40" height="12" fill="#8bc34a"/><rect x="800" y="308" width="40" height="12" fill="#7cb342"/><rect x="840" y="308" width="40" height="12" fill="#8bc34a"/><rect x="880" y="308" width="40" height="12" fill="#7cb342"/><rect x="920" y="308" width="40" height="12" fill="#8bc34a"/><rect x="960" y="308" width="40" height="12" fill="#7cb342"/><rect x="1000" y="308" width="40" height="12" fill="#8bc34a"/><rect x="1040" y="308" width="40" height="12" fill="#7cb342"/><rect x="1080" y="308" width="40" height="12" fill="#8bc34a"/><rect x="1120" y="308" width="40" height="12" fill="#7cb342"/><rect x="1160" y="308" width="40" height="12" fill="#8bc34a"/>
</svg>
